<?xml version="1.0" encoding="iso-8859-1"?>
<!-- Generator: Adobe Illustrator 26.3.1, SVG Export Plug-In . SVG Version: 6.00 Build 0)  -->
<svg version="1.1" id="_x30_1" xmlns="http://www.w3.org/2000/svg" xmlns:xlink="http://www.w3.org/1999/xlink" x="0px" y="0px"
	 viewBox="0 0 500 524" enable-background="new 0 0 500 524" xml:space="preserve">
<g>
	<path fill="#183278" d="M401.328,317.892c11.4-19.568,10.525-38.966,1.763-57.605c-3.85-0.292-7.756-0.75-11.728-1.392
		c-30.586-4.945-49.456,8.567-58.135,38.044c-4.99,16.946-10.911,33.002-19.064,48.034c4.797,0.995,9.859,1.747,15.402,2.262
		C365.145,347.048,387.338,341.905,401.328,317.892z"/>
	<path fill="#1904DA" d="M378.861,222.238c-9.555,1.584-19.514,2.089-30.032,1.419c-30.921-1.969-48.398,13.301-54.191,43.479
		c-4.255,22.163-10.16,43.028-20.453,62.576c0.045,0.023,0.09,0.045,0.134,0.068c14.359,7.378,25.979,12.317,39.844,15.193
		c8.153-15.032,14.074-31.088,19.064-48.034c8.679-29.478,27.549-42.989,58.135-38.044c3.972,0.642,7.877,1.101,11.728,1.392
		c-1.76-3.745-3.832-7.46-6.194-11.139C391.07,240.073,385.26,230.909,378.861,222.238z"/>
	<path fill="#08B1D5" d="M348.571,181.821c-14.494,6.348-30.079,10.008-47.506,10.613c-30.965,1.075-46.859,17.987-49.662,48.587
		c-2.334,25.482-6.944,49.512-17.804,72.452c13.789,4.168,27.333,9.439,40.587,16.238c10.292-19.548,16.198-40.413,20.453-62.576
		c5.793-30.178,23.27-45.448,54.191-43.479c10.518,0.67,20.476,0.165,30.032-1.419c-1.997-2.706-4.047-5.366-6.178-7.957
		C364.059,203.795,356.038,192.98,348.571,181.821z"/>
	<path fill="#00FFE4" d="M301.066,192.435c17.427-0.605,33.012-4.266,47.506-10.613c-9.745-14.565-18.539-29.719-26.467-45.507
		c-20.21,17.169-42.637,28.08-70.518,31.526c-30.75,3.8-45.091,22.047-45.187,52.775c-0.09,28.987-3.247,56.376-15.195,83.198
		c14.353,2.383,28.499,5.461,42.394,9.661c10.86-22.94,15.47-46.97,17.804-72.452C254.207,210.421,270.101,193.51,301.066,192.435z"
		/>
	<path fill="#FF0036" d="M143.923,296.913c1.054-3.19,2.368-6.532,3.976-10.053c13.878-30.404,16.15-60.754,14.555-92.87
		c-1.525-30.691,11.835-49.668,42.342-55.084c33.273-5.907,58.099-22.177,80.207-47.027c2.531-2.845,5.082-5.418,7.643-7.768
		c-2.964-4.058-6.053-8.001-9.268-11.793c-25.145-29.674-52.909-28.634-75.37,2.581c-16.055,22.313-35.075,37.804-61.923,45.497
		c-24.616,7.053-33.98,23.793-30.109,48.892c4.05,26.264,4.77,51.407-4.046,77.583c-9.959,29.57,0.389,43.552,30.896,49.832
		C143.189,296.779,143.557,296.84,143.923,296.913z"/>
	<path fill="#FFC900" d="M251.587,167.84c27.881-3.446,50.308-14.357,70.518-31.526c-1.936-3.856-3.823-7.747-5.657-11.679
		c-6.565-14.073-14.562-27.871-23.803-40.523c-2.561,2.35-5.112,4.922-7.643,7.768c-22.109,24.85-46.934,41.12-80.207,47.027
		c-30.507,5.416-43.866,24.393-42.342,55.084c1.595,32.115-0.676,62.466-14.555,92.87c-1.607,3.521-2.922,6.863-3.975,10.053
		c7.058,1.41,14.21,2.442,21.361,3.279c8.709,1.019,17.351,2.198,25.921,3.62c11.948-26.823,15.105-54.211,15.195-83.198
		C206.496,189.886,220.837,171.64,251.587,167.84z"/>
</g>
<g>
	<path fill="#FFFFFF" d="M151.546,471.518v8.256c-5.625,0-10.692-2.026-14.688-5.381c-5.021-4.214-8.21-10.537-8.21-17.604v-41.352
		h8.21v18.763h14.688v8.311h-14.688v14.479C136.97,465.031,143.482,471.518,151.546,471.518z"/>
	<path fill="#FFFFFF" d="M180.827,434.201v8.202c-7.785,0.015-14.129,6.193-14.41,13.908v23.464h-8.23v-45.574h8.23v5.203
		C170.329,436.156,175.35,434.208,180.827,434.201z"/>
	<path fill="#FFFFFF" d="M227.967,456.952v22.822h-22.846c-0.502,0-1.005-0.015-1.504-0.054c-6.471-0.426-12.203-3.549-16.084-8.265
		c-3.309-4.027-5.203-8.983-5.214-14.503c0.526-25.705,35.319-31.457,44.298-7.747C227.51,451.681,227.967,454.323,227.967,456.952z
		 M219.524,456.952c0.054-12.903-15.66-19.25-24.585-10.198l-0.004-0.008c-2.625,2.62-4.253,6.208-4.253,10.205
		c0,7.986,6.475,14.488,14.457,14.488c4.001,0,14.383,0,14.383,0S219.524,460.957,219.524,456.952z"/>
	<path fill="#FFFFFF" d="M266.777,467.265l5.836,5.836c-4.125,4.12-9.822,6.671-16.115,6.671c-6.293,0-11.987-2.551-16.112-6.671
		c-4.125-4.129-6.671-9.826-6.671-16.119c0-6.286,2.548-11.983,6.671-16.112c4.125-4.12,9.818-6.671,16.112-6.671
		s11.991,2.551,16.115,6.671l-5.836,5.836c-2.629-2.629-6.262-4.26-10.278-4.26c-4.012,0-7.645,1.631-10.274,4.26
		c-2.633,2.629-4.26,6.262-4.26,10.274c0,4.02,1.627,7.654,4.26,10.282c2.629,2.629,6.262,4.26,10.274,4.26
		C260.515,471.526,264.148,469.894,266.777,467.265z"/>
	<path fill="#FFFFFF" d="M320.41,459.959h-36.753c1.383,6.556,7.206,11.504,14.166,11.504c4.542,0,8.593-2.111,11.241-5.397h9.641
		c-3.522,8.063-11.55,13.707-20.881,13.707c-12.57,0-22.787-10.235-22.787-22.822c0-12.579,10.217-22.752,22.787-22.752
		C311.465,434.092,322.296,446.445,320.41,459.959z M311.28,451.642c-2.118-5.349-7.341-9.115-13.455-9.115
		s-11.346,3.766-13.468,9.115H311.28z"/>
	<path fill="#FFFFFF" d="M370.569,459.959h-36.753c1.383,6.556,7.206,11.504,14.166,11.504c4.542,0,8.593-2.111,11.241-5.397h9.641
		c-3.522,8.063-11.55,13.707-20.881,13.707c-12.57,0-22.787-10.235-22.787-22.822c0-12.579,10.217-22.752,22.787-22.752
		C361.623,434.092,372.456,446.445,370.569,459.959z M361.438,451.642c-2.118-5.349-7.341-9.115-13.455-9.115
		s-11.346,3.766-13.468,9.115H361.438z"/>
</g>
<g>
	<path fill="#FFFFFF" d="M151.985,398.383H140.34c-6.421,0-11.646-5.224-11.646-11.646c0-6.422,5.224-11.646,11.646-11.646
		s11.646,5.224,11.646,11.646V398.383z M140.34,379.821c-3.814,0-6.916,3.103-6.916,6.916c0,3.814,3.103,6.916,6.916,6.916h6.916
		v-6.916C147.256,382.924,144.153,379.821,140.34,379.821z"/>
	<path fill="#FFFFFF" d="M230.13,398.383h-11.646c-6.421,0-11.646-5.224-11.646-11.646c0-6.422,5.224-11.646,11.646-11.646
		s11.646,5.224,11.646,11.646V398.383z M218.485,379.821c-3.814,0-6.916,3.103-6.916,6.916c0,3.814,3.103,6.916,6.916,6.916h6.916
		v-6.916C225.401,382.924,222.298,379.821,218.485,379.821z"/>
	<path fill="#FFFFFF" d="M192.435,398.388c-6.424,0-11.651-5.226-11.651-11.651v-10.928h4.731v10.928
		c0,3.815,3.104,6.919,6.919,6.919c3.815,0,6.919-3.104,6.919-6.919v-10.928h4.731v10.928
		C204.085,393.162,198.859,398.388,192.435,398.388z"/>
	<path fill="#FFFFFF" d="M166.385,375.092c-6.421,0-11.645,5.224-11.645,11.646c0,6.421,5.224,11.646,11.645,11.646l4.729-4.729
		h-4.729c-3.814,0-6.916-3.103-6.916-6.916c0-3.814,3.103-6.916,6.916-6.916c3.814,0,6.916,3.103,6.916,6.916v22.76h4.729v-22.76
		C178.03,380.316,172.806,375.092,166.385,375.092z"/>
</g>
</svg>
