<?xml version="1.0" encoding="iso-8859-1"?>
<!-- Generator: Adobe Illustrator 26.3.1, SVG Export Plug-In . SVG Version: 6.00 Build 0)  -->
<svg version="1.1" id="_x30_1" xmlns="http://www.w3.org/2000/svg" xmlns:xlink="http://www.w3.org/1999/xlink" x="0px" y="0px"
	 viewBox="0 0 330 135" enable-background="new 0 0 330 135" xml:space="preserve">
<g>
	<path fill="#183278" d="M131.171,118.326c4.727-8.114,4.364-16.157,0.731-23.886c-1.597-0.121-3.216-0.311-4.863-0.577
		c-12.683-2.05-20.507,3.552-24.105,15.775c-2.069,7.027-4.524,13.684-7.905,19.917c1.989,0.413,4.088,0.724,6.386,0.938
		C116.168,130.415,125.37,128.283,131.171,118.326z"/>
	<path fill="#1904DA" d="M121.855,78.664c-3.962,0.657-8.091,0.866-12.453,0.589c-12.821-0.817-20.068,5.515-22.47,18.028
		c-1.764,9.19-4.213,17.841-8.481,25.947c0.019,0.01,0.037,0.019,0.056,0.028c5.954,3.059,10.772,5.107,16.521,6.3
		c3.381-6.233,5.836-12.891,7.905-19.917c3.599-12.223,11.423-17.825,24.105-15.775c1.647,0.266,3.266,0.456,4.863,0.577
		c-0.73-1.553-1.589-3.093-2.568-4.619C126.918,86.059,124.509,82.259,121.855,78.664z"/>
	<path fill="#08B1D5" d="M109.296,61.905c-6.01,2.632-12.472,4.15-19.698,4.401c-12.839,0.446-19.43,7.458-20.592,20.146
		c-0.968,10.566-2.879,20.53-7.383,30.042c5.718,1.728,11.333,3.914,16.829,6.733c4.268-8.105,6.716-16.757,8.481-25.947
		c2.402-12.513,9.649-18.845,22.47-18.028c4.361,0.278,8.49,0.068,12.453-0.589c-0.828-1.122-1.678-2.225-2.562-3.299
		C115.718,71.016,112.392,66.532,109.296,61.905z"/>
	<path fill="#00FFE4" d="M89.598,66.306c7.226-0.251,13.688-1.769,19.698-4.401c-4.041-6.039-7.687-12.323-10.974-18.869
		c-8.38,7.119-17.679,11.643-29.24,13.072c-12.75,1.576-18.697,9.142-18.736,21.883c-0.037,12.019-1.346,23.376-6.301,34.498
		c5.951,0.988,11.817,2.264,17.578,4.006c4.503-9.512,6.415-19.476,7.383-30.042C70.168,73.764,76.758,66.752,89.598,66.306z"/>
	<path fill="#FF0036" d="M24.44,109.627c0.437-1.323,0.982-2.708,1.648-4.168c5.755-12.607,6.697-25.191,6.035-38.508
		c-0.632-12.726,4.907-20.595,17.557-22.84c13.797-2.449,24.09-9.195,33.257-19.5c1.05-1.18,2.107-2.246,3.169-3.221
		c-1.229-1.683-2.51-3.317-3.843-4.89C71.837,4.196,60.325,4.628,51.012,17.571c-6.657,9.252-14.544,15.675-25.676,18.865
		c-10.207,2.925-14.089,9.865-12.485,20.273c1.679,10.89,1.978,21.315-1.678,32.169c-4.129,12.261,0.161,18.059,12.811,20.663
		C24.136,109.572,24.288,109.597,24.44,109.627z"/>
	<path fill="#FFC900" d="M69.082,56.108c11.561-1.429,20.86-5.953,29.24-13.072c-0.803-1.599-1.585-3.212-2.346-4.843
		c-2.722-5.835-6.038-11.556-9.87-16.803c-1.062,0.974-2.12,2.041-3.169,3.221c-9.167,10.304-19.461,17.05-33.257,19.5
		c-12.649,2.246-18.189,10.115-17.557,22.84c0.662,13.316-0.28,25.901-6.035,38.508c-0.666,1.46-1.211,2.846-1.648,4.168
		c2.927,0.585,5.892,1.013,8.857,1.36c3.611,0.423,7.195,0.911,10.748,1.501c4.954-11.122,6.263-22.478,6.301-34.498
		C50.385,65.249,56.332,57.683,69.082,56.108z"/>
</g>
<g>
	<path fill="#07242D" d="M163.515,103.285v5.965c-4.064,0-7.724-1.464-10.611-3.888c-3.627-3.044-5.931-7.612-5.931-12.717V62.77
		h5.931v13.555h10.611v6.004h-10.611v10.46C152.984,98.599,157.689,103.285,163.515,103.285z"/>
	<path fill="#07242D" d="M184.668,76.326v5.925c-5.624,0.011-10.207,4.474-10.41,10.047v16.951h-5.945V76.325h5.945v3.759
		C177.084,77.738,180.711,76.331,184.668,76.326z"/>
	<path fill="#07242D" d="M218.723,92.762v16.487h-16.504c-0.363,0-0.726-0.011-1.087-0.039c-4.675-0.308-8.816-2.564-11.619-5.971
		c-2.391-2.909-3.759-6.489-3.767-10.477c0.38-18.57,25.515-22.725,32.002-5.597C218.393,88.954,218.723,90.863,218.723,92.762z
		 M212.624,92.762c0.039-9.321-11.313-13.907-17.761-7.367l-0.003-0.006c-1.896,1.893-3.072,4.485-3.072,7.372
		c0,5.77,4.678,10.466,10.444,10.466c2.89,0,10.391,0,10.391,0S212.624,95.655,212.624,92.762z"/>
	<path fill="#07242D" d="M246.761,100.212l4.216,4.216c-2.98,2.977-7.096,4.82-11.642,4.82c-4.546,0-8.66-1.843-11.64-4.82
		c-2.98-2.983-4.82-7.099-4.82-11.645c0-4.541,1.841-8.657,4.82-11.64c2.98-2.977,7.093-4.82,11.64-4.82s8.663,1.843,11.642,4.82
		l-4.216,4.216c-1.899-1.899-4.524-3.077-7.425-3.077c-2.898,0-5.523,1.178-7.422,3.077c-1.902,1.899-3.077,4.524-3.077,7.422
		c0,2.904,1.175,5.529,3.077,7.428c1.899,1.899,4.524,3.077,7.422,3.077C242.237,103.291,244.862,102.111,246.761,100.212z"/>
	<path fill="#07242D" d="M285.507,94.934h-26.552c0.999,4.736,5.206,8.311,10.234,8.311c3.281,0,6.208-1.525,8.121-3.899h6.965
		c-2.544,5.825-8.344,9.902-15.085,9.902c-9.081,0-16.462-7.394-16.462-16.487c0-9.087,7.381-16.437,16.462-16.437
		C279.044,76.247,286.869,85.172,285.507,94.934z M278.911,88.926c-1.53-3.864-5.303-6.585-9.72-6.585s-8.196,2.72-9.729,6.585
		H278.911z"/>
	<path fill="#07242D" d="M321.742,94.934h-26.552c0.999,4.736,5.206,8.311,10.234,8.311c3.281,0,6.208-1.525,8.121-3.899h6.965
		c-2.544,5.825-8.344,9.902-15.085,9.902c-9.081,0-16.462-7.394-16.462-16.487c0-9.087,7.381-16.437,16.462-16.437
		C315.28,76.247,323.106,85.172,321.742,94.934z M315.146,88.926c-1.53-3.864-5.303-6.585-9.72-6.585
		c-4.417,0-8.196,2.72-9.729,6.585H315.146z"/>
</g>
<g>
	<path fill="#07242D" d="M164.648,47.951h-8.833c-4.871,0-8.833-3.963-8.833-8.833c0-4.871,3.963-8.834,8.833-8.834
		c4.871,0,8.833,3.963,8.833,8.834V47.951z M155.814,33.871c-2.893,0-5.246,2.353-5.246,5.246c0,2.893,2.353,5.246,5.246,5.246
		h5.246v-5.246C161.06,36.224,158.707,33.871,155.814,33.871z"/>
	<path fill="#07242D" d="M223.923,47.951h-8.833c-4.871,0-8.833-3.963-8.833-8.833c0-4.871,3.963-8.834,8.833-8.834
		c4.871,0,8.833,3.963,8.833,8.834V47.951z M215.09,33.871c-2.893,0-5.246,2.353-5.246,5.246c0,2.893,2.353,5.246,5.246,5.246h5.246
		v-5.246C220.336,36.224,217.982,33.871,215.09,33.871z"/>
	<path fill="#07242D" d="M195.33,47.955c-4.873,0-8.837-3.964-8.837-8.837v-8.289h3.589v8.289c0,2.894,2.354,5.248,5.248,5.248
		c2.894,0,5.248-2.354,5.248-5.248v-8.289h3.589v8.289C204.167,43.99,200.203,47.955,195.33,47.955z"/>
	<path fill="#07242D" d="M175.57,30.284c-4.871,0-8.833,3.963-8.833,8.834c0,4.871,3.963,8.833,8.833,8.833l3.587-3.587h-3.587
		c-2.893,0-5.246-2.353-5.246-5.246c0-2.893,2.353-5.246,5.246-5.246s5.246,2.353,5.246,5.246v17.264h3.587V39.117
		C184.403,34.246,180.441,30.284,175.57,30.284z"/>
</g>
</svg>
